<?xml version="1.0" encoding="utf-8"?>
<!-- Generator: Adobe Illustrator 25.3.1, SVG Export Plug-In . SVG Version: 6.00 Build 0)  -->
<svg version="1.1" id="Layer_1" xmlns="http://www.w3.org/2000/svg" xmlns:xlink="http://www.w3.org/1999/xlink" x="0px" y="0px"
	 viewBox="0 0 1920 1080" style="enable-background:new 0 0 1920 1080;" xml:space="preserve">
<style type="text/css">
	.st0{fill:#FBB03B;}
	.st1{fill:url(#SVGID_1_);}
	.st2{fill:url(#SVGID_2_);}
</style>
<path d="M1165,473.25c0,190.69-154.49,345.28-345.06,345.28S474.87,663.95,474.87,473.25c0-190.69,154.5-345.27,345.07-345.27
	S1165,282.56,1165,473.25z"/>
<circle class="st0" cx="820.5" cy="472.5" r="333.5"/>
<path d="M1149,473.11c0,181.51-147.05,328.65-328.44,328.65S492.11,654.62,492.11,473.11c0-181.5,147.06-328.64,328.45-328.64
	S1149,291.61,1149,473.11z"/>
<g>
	<linearGradient id="SVGID_1_" gradientUnits="userSpaceOnUse" x1="564.7547" y1="422.5864" x2="1049.8031" y2="422.5864">
		<stop  offset="0" style="stop-color:#FFFFFF"/>
		<stop  offset="0.3991" style="stop-color:#FBB03B"/>
	</linearGradient>
	<path class="st1" d="M1036.7,360.07c2.88-1.02,5.82-1.87,8.85-2.51c1.14-0.24,2.45-0.42,3.36,0.31c1.24,0.98,0.96,2.91,0.49,4.42
		c-2.28,7.33-6.78,16.04-12.49,21.38c-8.27,7.73-18.39,13.07-27.93,19.01c-22.55,14.05-71.94,41.2-103.38,55.85
		c-31.44,14.65-81.37,39.82-109.24,53.02c-40.78,19.32-87.09,38.89-123.13,45.06c-36.04,6.17-60.36,6.49-83.18-16.87
		c-41.62-42.6-26.56-105.13,6.78-155.06s107.86-97.25,172.38-99.42c24.17-0.81,37.64-0.01,53.51,8.09
		c15.87,8.1,18.15,17.19,21.86,28.79c3.45,10.78,2.12,17.78,2.05,26.48c-0.07,8.7-5.51,13.37-10.26,18.24
		c-4.76,4.87-10.32,8.34-15.92,9.67c-4.03,0.96-5.56,0.3-8.6-2.04c-3.05-2.34-3.78-3.96-4.71-9.24c-0.63-3.57,0.43-12.29,0.17-17.58
		c-0.25-5.29,2.32-14.64-0.54-19.76c-8.36-14.94-11.84-19.11-32.95-18.54c-32.73,0.88-68.6,16.91-97.19,37.08
		c-28.59,20.16-57.78,56.3-64.56,87.6s-10.96,59.4,15.23,78.59c17.5,12.82,33.84,12.4,63.61,6.74
		c29.77-5.66,71.82-23.18,109.73-40.16c21.84-9.78,69.38-33.14,96.06-45.67c26.68-12.53,79.53-39.18,98.11-50.15
		C1008.47,375.32,1021.65,365.4,1036.7,360.07z"/>
</g>
<g>
	<linearGradient id="SVGID_2_" gradientUnits="userSpaceOnUse" x1="837.2119" y1="568.9795" x2="917.0713" y2="568.9795">
		<stop  offset="0" style="stop-color:#FFFFFF"/>
		<stop  offset="0" style="stop-color:#FBB03B"/>
	</linearGradient>
	<path class="st2" d="M917.07,463.21c-0.93,4.5-6.13,20.58-15.6,48.26c-4.5,13.03-7.45,23.99-8.85,32.86
		c-0.93,6-2.09,12.51-3.49,19.54c-6.21,29.52-9.31,49.7-9.31,60.54c0,16.26,1.32,32.23,3.96,47.91c1.55,9.11-0.62,15.68-6.52,19.72
		c-5.9,4.04-11.8,6.05-17.69,6.05c-8.38,0-14.2-3.49-17.46-10.46c-3.26-6.98-4.89-18.25-4.89-33.82c0-16.26,3.1-38.74,9.31-67.46
		c2.17-10.84,3.41-17.35,3.73-19.55c0.31-3.92,0.93-7.96,1.86-12.11c0.78-4.03,1.4-8.07,1.86-12.11
		c0.93-10.72,3.72-24.73,8.38-42.03c3.41-13.03,5.9-24.5,7.45-34.42c1.08-6.92,2.33-11.59,3.72-14.01c1.4-2.42,5.01-5.07,10.83-7.96
		c5.82-2.88,10.2-4.32,13.15-4.32c6.52,0,11.41,2.33,14.67,7.01C915.44,451.53,917.07,456.98,917.07,463.21z"/>
</g>
</svg>
